<?xml version="1.0" standalone="no"?>
<!DOCTYPE svg PUBLIC "-//W3C//DTD SVG 20010904//EN"
 "http://www.w3.org/TR/2001/REC-SVG-20010904/DTD/svg10.dtd">
<svg version="1.0" xmlns="http://www.w3.org/2000/svg"
 width="260.000000pt" height="260.000000pt" viewBox="0 0 260.000000 260.000000"
 preserveAspectRatio="xMidYMid meet">
<metadata>
Created by potrace 1.14, written by Peter Selinger 2001-2017
</metadata>
<g transform="translate(0.000000,260.000000) scale(0.100000,-0.100000)"
fill="#000000" stroke="none">
<path d="M264 2469 c-36 -10 -59 -33 -49 -49 5 -8 14 -5 29 9 11 11 37 27 56
35 39 17 16 20 -36 5z"/>
<path d="M515 2400 c-135 -21 -191 -40 -234 -80 -33 -31 -41 -45 -41 -73 0
-28 -6 -38 -37 -58 -54 -35 -54 -55 0 -79 24 -11 67 -25 95 -31 29 -6 52 -14
52 -17 -1 -4 -25 -24 -54 -44 -34 -23 -61 -52 -74 -78 -12 -26 -33 -48 -54
-58 -40 -21 -46 -55 -9 -60 18 -3 22 0 18 12 -4 10 4 23 23 36 26 19 31 19 62
5 18 -8 53 -19 77 -26 l45 -11 -52 -47 c-29 -26 -52 -55 -52 -64 0 -16 10 -20
82 -32 44 -7 53 -17 39 -44 -7 -12 -27 -21 -58 -26 -88 -13 -129 -50 -84 -75
29 -15 50 -12 29 4 -28 21 -21 33 29 50 63 21 63 21 63 -22 0 -55 23 -80 114
-123 115 -54 115 -54 85 -78 -13 -11 -33 -21 -44 -21 -11 -1 -15 -4 -8 -7 10
-3 10 -9 0 -24 -8 -14 -9 -24 -1 -37 16 -26 95 -62 152 -69 l51 -6 -6 -57 c-3
-34 -1 -72 6 -93 15 -46 73 -96 139 -121 l51 -20 -26 -23 c-20 -19 -23 -26
-13 -38 7 -8 22 -15 33 -15 20 0 21 0 1 15 -19 15 -19 15 0 30 24 18 52 19 95
4 27 -10 32 -15 27 -35 -3 -13 -9 -34 -12 -47 -7 -32 27 -72 80 -92 l45 -17
-27 -24 c-26 -23 -27 -24 -8 -39 11 -8 27 -15 35 -15 11 0 10 4 -5 15 -19 15
-19 15 0 30 25 19 56 19 81 1 18 -13 18 -15 -13 -50 -32 -37 -44 -97 -22 -111
6 -3 10 -12 10 -19 0 -9 -24 -15 -77 -19 -99 -7 -140 -22 -158 -57 -10 -19
-27 -31 -60 -40 -50 -14 -95 -44 -95 -64 0 -6 6 -18 13 -25 7 -7 12 -37 12
-69 0 -53 2 -57 35 -80 l35 -24 3 36 c4 42 35 71 94 87 30 8 43 7 54 -2 20
-16 13 -32 -17 -40 l-24 -7 27 -1 c55 -2 75 24 43 59 -13 14 -9 20 38 58 57
46 84 51 128 25 35 -21 34 -44 -1 -54 -19 -6 -16 -7 15 -6 33 2 41 6 43 24 2
13 -5 27 -19 36 -21 15 -21 16 15 22 38 8 86 39 86 57 0 5 9 22 21 36 15 20
36 30 81 39 98 20 111 44 53 99 l-35 33 30 30 c17 16 30 39 30 50 0 23 32 29
60 11 12 -8 13 -13 2 -30 -14 -23 -4 -26 24 -6 30 23 7 49 -57 62 -48 10 -139
58 -139 73 0 3 18 14 41 23 28 12 44 26 52 48 11 30 30 39 42 20 4 -6 1 -18
-6 -27 -11 -13 -11 -15 5 -12 10 2 24 12 30 22 9 15 7 21 -8 33 -11 8 -29 14
-40 14 -22 0 -186 70 -186 80 0 3 26 19 58 36 31 17 58 38 60 47 2 9 -8 32
-22 50 -14 19 -26 36 -26 39 0 3 20 11 45 18 89 25 146 76 169 153 4 14 17 17
71 17 36 0 80 6 98 13 30 13 100 81 108 106 5 14 65 -3 88 -25 12 -11 11 -14
-10 -22 -51 -19 -53 -22 -10 -18 24 3 51 12 60 21 15 15 14 17 -4 31 -11 8
-39 20 -63 27 -63 17 -53 40 20 48 97 11 127 46 96 114 -6 14 -8 28 -5 32 10
10 85 -18 103 -39 16 -17 16 -19 -1 -38 -10 -11 -13 -20 -7 -20 23 0 91 32 96
45 6 18 -20 40 -66 55 -42 13 -48 25 -18 35 10 3 31 20 45 36 31 37 33 91 5
136 l-19 32 33 16 c42 20 73 48 81 75 9 30 -35 93 -88 127 -134 85 -474 168
-922 224 -132 17 -239 22 -480 24 -171 2 -337 0 -370 -5z m592 -304 c15 -12
57 -33 93 -45 83 -27 79 -24 124 -99 36 -60 38 -67 32 -123 -7 -72 -92 -249
-131 -275 -28 -18 -95 -15 -120 6 -8 7 -27 39 -41 71 -15 33 -30 59 -35 59 -4
0 -14 -12 -22 -27 -40 -77 -45 -84 -51 -71 -3 7 -3 -23 1 -67 9 -125 68 -221
157 -255 39 -14 133 5 211 45 110 56 290 216 382 340 20 26 22 27 23 9 0 -20
-45 -99 -79 -139 -10 -11 -18 -33 -19 -50 -1 -24 -19 -46 -84 -109 -124 -117
-248 -183 -374 -200 -60 -8 -207 16 -275 45 -66 29 -175 142 -184 193 -4 20
-5 40 -1 43 3 4 6 -3 6 -15 0 -33 22 -75 32 -60 4 7 8 18 8 23 0 6 -4 4 -9 -4
-15 -23 -24 49 -19 142 4 82 -2 74 -20 -28 -8 -41 -10 -44 -11 -17 -1 46 26
174 49 228 23 53 23 54 10 54 -6 0 -19 -19 -30 -42 -10 -24 -19 -37 -19 -30
-1 19 45 107 95 182 67 100 218 240 260 240 7 0 25 -11 41 -24z"/>
<path d="M1195 1901 c-26 -11 -99 -90 -119 -129 -15 -30 -15 -32 6 -52 55 -51
93 -36 138 57 51 107 42 152 -25 124z"/>
<path d="M740 1508 c0 -34 2 -59 4 -57 8 10 14 119 5 119 -5 0 -9 -28 -9 -62z"/>
<path d="M757 1363 c-12 -11 -8 -22 14 -33 19 -11 20 -10 8 12 -15 30 -15 29
-22 21z"/>
<path d="M2170 2289 c232 -73 319 -115 342 -164 6 -14 15 -25 19 -25 12 0 20
35 13 54 -15 39 -156 98 -340 142 -138 32 -151 29 -34 -7z"/>
<path d="M30 2222 c-14 -11 -19 -21 -13 -25 11 -7 50 30 41 38 -3 3 -16 -3
-28 -13z"/>
<path d="M2337 1925 c20 -27 43 -33 43 -12 0 8 -11 19 -25 25 -36 17 -38 15
-18 -13z"/>
<path d="M462 1334 c-18 -13 -21 -19 -11 -30 16 -20 28 -17 22 4 -3 12 3 22
19 29 14 7 17 12 8 12 -9 1 -26 -6 -38 -15z"/>
<path d="M1680 1290 c8 -5 23 -10 33 -10 10 0 28 -5 39 -11 21 -11 21 -12 3
-25 -18 -14 -18 -14 1 -14 10 0 25 4 33 9 24 15 -4 38 -60 50 -61 13 -68 13
-49 1z"/>
<path d="M1530 1168 c68 -12 79 -21 55 -48 -22 -24 -9 -26 23 -4 50 35 14 65
-75 63 l-58 -1 55 -10z"/>
<path d="M638 1159 c-10 -5 -18 -14 -18 -19 0 -17 15 -11 28 10 14 23 13 23
-10 9z"/>
<path d="M1050 530 c-21 -13 -10 -18 27 -13 18 3 30 9 27 14 -7 12 -35 11 -54
-1z"/>
<path d="M853 423 c-23 -9 -14 -20 12 -15 14 2 25 8 25 13 0 10 -17 11 -37 2z"/>
</g>
</svg>
